<svg width="16" height="16" viewBox="0 0 250 250" fill="none" xmlns="http://www.w3.org/2000/svg">
<path d="M180.323 22.7H180.332V45.428H157.605V23.585H66.812V68.161H44.125V115.909H75.758V204.546H97.085V227.272H75.758V250H53.03V138.637H0V115.909H21.397V68.161H44.084V23.464H66.664V0H180.323V22.7ZM142.519 181.818H119.813V204.546H97.086V181.818H119.791V159.091H142.519V181.818ZM165.246 159.092H142.52V136.364H165.246V159.092ZM98.486 138.637H75.76V115.909H98.486V138.637ZM187.878 136.363H165.15V113.636H112.121V68.182H134.848V90.909H210.606V113.636H187.878V136.363ZM157.576 68.182H134.85V45.454H157.576V68.182Z" fill="currentColor"/>
</svg>
